<svg width="800" height="418" viewBox="0 0 800 418" xmlns="http://www.w3.org/2000/svg">
  <defs>
    <linearGradient id="bgGradient" x1="0%" y1="0%" x2="100%" y2="100%">
      <stop offset="0%" style="stop-color:#F3F3E0;stop-opacity:1" />
      <stop offset="50%" style="stop-color:#CBDCEB;stop-opacity:1" />
      <stop offset="100%" style="stop-color:#608BC1;stop-opacity:1" />
    </linearGradient>
    
    <linearGradient id="logoGradient" x1="0%" y1="0%" x2="100%" y2="100%">
      <stop offset="0%" style="stop-color:#608BC1;stop-opacity:1" />
      <stop offset="100%" style="stop-color:#133E87;stop-opacity:1" />
    </linearGradient>
  </defs>
  
  <!-- 배경 -->
  <rect width="800" height="418" fill="url(#bgGradient)"/>
  
  <!-- 중앙 로고 -->
  <g transform="translate(350, 150)">
    <path d="M10 50 Q25 30 40 50 T70 50 Q85 30 100 50 Q85 70 70 50 T40 50 Q25 70 10 50 Z" 
          fill="url(#logoGradient)" opacity="0.9"/>
    <path d="M35 45 Q55 38 75 45 L70 55 Q55 60 40 55 Z" 
          fill="#F3F3E0" stroke="#133E87" stroke-width="1.5"/>
    <line x1="55" y1="45" x2="55" y2="25" stroke="#133E87" stroke-width="3"/>
    <path d="M55 25 L70 30 L55 35 Z" fill="#608BC1"/>
    <circle cx="55" cy="50" r="3" fill="#133E87"/>
  </g>
  
  <!-- 제목 -->
  <text x="400" y="250" font-family="Arial, sans-serif" font-size="36" font-weight="bold" 
        fill="#133E87" text-anchor="middle">
    해양레저 안전신고
  </text>
  
  <!-- 부제목 -->
  <text x="400" y="285" font-family="Arial, sans-serif" font-size="20" 
        fill="#133E87" text-anchor="middle" opacity="0.8">
    AI 기반 해양활동 자율신고제도
  </text>
  
  <!-- 특징 -->
  <g transform="translate(200, 330)">
    <text x="0" y="0" font-family="Arial, sans-serif" font-size="16" fill="#133E87">
      🤖 AI 분석  🌊 실시간 정보  🛡️ 안전 보장  💯 무료 서비스
    </text>
  </g>
</svg>